<svg xmlns="http://www.w3.org/2000/svg" xmlns:xlink="http://www.w3.org/1999/xlink" width="1920" height="910" viewBox="0 0 1920 910">
    <defs>
        <linearGradient id="okwr2007bf" x1="86.319%" x2="-12.961%" y1="16.129%" y2="61.362%">
            <stop offset="0%" stop-color="#b7dae7"/>
            <stop offset="35.425%" stop-color="#97c7da"/>
            <stop offset="100%" stop-color="#238eb7"/>
        </linearGradient>
        <linearGradient id="esr6uwylth" x1="0%" x2="100%" y1="-8.13%" y2="109.089%">
            <stop offset="0%" stop-color="#b7dae7"/>
            <stop offset="59.987%" stop-color="#53a1c2"/>
            <stop offset="100%" stop-color="#238eb7"/>
        </linearGradient>
        <linearGradient id="k9k5jy0gui" x1="41.253%" x2="123.121%" y1="20.033%" y2="138.706%">
            <stop offset="0%" stop-color="#b7dae7"/>
            <stop offset="35.425%" stop-color="#97c7da"/>
            <stop offset="100%" stop-color="#238eb7"/>
        </linearGradient>
        <linearGradient id="rx367reqhj" x1="0%" x2="122.215%" y1="0%" y2="100%">
            <stop offset="0%" stop-color="#b7dae7"/>
            <stop offset="48.602%" stop-color="#76b4ce"/>
            <stop offset="100%" stop-color="#238eb7"/>
        </linearGradient>
        <rect id="9143tr6tyc" width="1932" height="960" x="0" y="0" rx="8"/>
        <rect id="50an673hye" width="1932" height="960" x="0" y="0" rx="8"/>
        <path id="v7cw2incsa" d="M0 0H1920V1057H0z"/>
        <path id="e11cgw24qk" d="M0 0.14L55.674 0.14 55.674 17.911 0 17.911z"/>
    </defs>
    <g fill="none" fill-rule="evenodd">
        <g>
            <g>
                <g>
                    <g transform="translate(0 -147)">
                        <mask id="djnvesij7b" fill="#fff">
                            <use xlink:href="#v7cw2incsa"/>
                        </mask>
                        <use fill="#2A6989" fill-rule="nonzero" xlink:href="#v7cw2incsa"/>
                        <g mask="url(#djnvesij7b)">
                            <g transform="translate(0 148)">
                                <mask id="a13tipiy6d" fill="#fff">
                                    <use xlink:href="#9143tr6tyc"/>
                                </mask>
                                <use fill="#2A6989" xlink:href="#9143tr6tyc"/>
                                <g mask="url(#a13tipiy6d)">
                                    <mask id="bw1zgxutcg" fill="#fff">
                                        <use xlink:href="#50an673hye"/>
                                    </mask>
                                    <use fill="#175F7A" xlink:href="#50an673hye"/>
                                    <path fill="url(#okwr2007bf)" fill-rule="nonzero" d="M1966 672c0 129.05-104.95 234-234 234s-234-104.561-234-234c0-129.05 104.95-234 234-234 129.439 0 234 104.95 234 234z" mask="url(#bw1zgxutcg)" opacity=".52"/>
                                    <path fill="url(#esr6uwylth)" fill-rule="nonzero" d="M240 195.5C240 305.523 150.523 395 40.5 395S-159 305.855-159 195.5C-159 85.477-69.523-4 40.5-4 150.855-4 240 85.477 240 195.5z" mask="url(#bw1zgxutcg)" opacity=".522"/>
                                    <path fill="url(#k9k5jy0gui)" fill-rule="nonzero" d="M163 708.5c0 16.82-13.68 30.5-30.5 30.5S102 725.371 102 708.5c0-16.82 13.68-30.5 30.5-30.5 16.871 0 30.5 13.68 30.5 30.5z" mask="url(#bw1zgxutcg)" opacity=".52"/>
                                    <g fill="url(#rx367reqhj)" fill-rule="nonzero" mask="url(#bw1zgxutcg)" opacity=".52">
                                        <path d="M92 46c0 25.369-20.631 46-46 46S0 71.445 0 46C0 20.631 20.631 0 46 0c25.445 0 46 20.631 46 46z" opacity=".522" transform="matrix(-1 0 0 1 1040 269)"/>
                                    </g>
                                    <g fill="url(#rx367reqhj)" fill-rule="nonzero" mask="url(#bw1zgxutcg)" opacity=".52">
                                        <path d="M122 61c0 33.641-27.359 61-61 61S0 94.743 0 61C0 27.359 27.359 0 61 0c33.743 0 61 27.359 61 61z" opacity=".522" transform="matrix(.5 .86603 .86603 -.5 642 633)"/>
                                    </g>
                                </g>
                            </g>
                        </g>
                    </g>
                    <g>
                        <path fill="#FEFEFE" d="M343.997 83.605c-16.452-15.2-38.115-29.08-61.683-23.242-4.055 1.005-2.336 7.149 1.73 6.143 21.145-5.237 40.705 8.071 55.354 21.604 3.043 2.811 7.652-1.684 4.599-4.505" transform="translate(0 -147) translate(1251 433)"/>
                        <path fill="#FEFEFE" d="M296.547 61.94c-50.272-17.395-105.67 12.82-117.306 64.36-5.26 23.291-2.02 53.263 17.896 69.226 10.467 8.392 23.845 11.374 36.899 13.108 15.695 2.088 31.661 3.053 47.472 1.822 30.41-2.367 60.742-13.544 80.673-37.29 2.713-3.23-1.956-7.909-4.691-4.65-15.686 18.686-38.297 29.499-62.196 33.65-13.91 2.415-28.132 2.665-42.197 1.77-12.883-.82-26.391-1.925-38.622-6.312-25.462-9.135-33.238-37.219-30.233-61.695 2.828-23.047 15.625-45.106 35.122-58.173 22.054-14.779 50.376-18.139 75.42-9.473 4.04 1.398 5.775-4.954 1.763-6.342" transform="translate(0 -147) translate(1251 433)"/>
                        <path fill="#FEFEFE" d="M381.724 88.35c-15.98-4.842-35.678-2.693-46.64 11.085-10.903 13.706-11.814 38.543-3.687 53.773 9.122 17.092 31.37 19.847 47.089 10.5 15.418-9.17 23.947-27.934 20.902-45.53-1.712-9.885-7.201-19.232-16.179-24.175-9.616-5.297-21.114-5.215-31.78-4.938-4.275.112-4.293 6.737 0 6.626 9.476-.246 19.83-.61 28.421 4.032 9.055 4.893 13.411 15.317 13.507 25.208.188 19.492-16.243 39.856-37.174 37.479-22.894-2.6-26.56-30.283-21.114-48.412 5.906-19.652 26.888-24.713 44.885-19.26 4.107 1.246 5.864-5.148 1.77-6.388M192.614 96.996c-12.236-3.085-26.6.99-33.168 12.297-9.029 15.539 1.517 32.619 10.62 45.25 2.486 3.452 8.305.134 5.789-3.357-7.307-10.141-16.93-23.323-11.603-36.411 4.163-10.23 16.461-13.916 26.58-11.366 4.183 1.056 5.968-5.358 1.782-6.413M220.407 121.45c3.286-4.664 9.392-5.454 14.686-6.096 5.822-.707 11.663-1.285 17.491-1.928 10.833-1.193 22.007-3.225 32.935-2.699 10.83.52 23.95 5.5 25.695 17.545 1.456 10.044-5.407 19.388-13.796 24.284-9.033 5.27-19.948 6.614-30.22 7.324-11.605.803-23.285.63-34.863-.505-5.34-.523-11.506-.76-16.124-3.795-5.023-3.3-7.096-9.522-7.553-15.202-.873-10.85 5.066-26.247 18.86-23.074 4.174.961 5.955-5.383 1.772-6.345-21.401-4.923-31.03 20.139-25.965 36.95 2.883 9.568 9.962 15.213 19.81 16.903 12.786 2.194 26.147 2.514 39.085 1.934 20.025-.902 44.663-4.393 53.499-25.008 8.309-19.389-7.357-35.086-26.384-37.273-14.856-1.707-30.726 1.716-45.497 3.344-10.382 1.144-22.62.998-29.186 10.32-2.456 3.485 3.32 6.778 5.755 3.321" transform="translate(0 -147) translate(1251 433)"/>
                        <path fill="#FEFEFE" d="M233.345 127.1c-.703 5.584-.316 11.099 1.017 16.57.994 4.081 7.531 2.353 6.535-1.732-1.198-4.919-1.404-9.828-.774-14.837.525-4.153-6.259-4.116-6.778 0M271 126.157v15.686c0 4.205 7 4.213 7 0v-15.686c0-4.205-7-4.213-7 0M221.122 205.444c-6.088 31.153-10.341 63.05-11.099 94.816-.302 12.645 2.282 24.57 12.495 32.846 8.61 6.977 19.81 10.178 30.566 11.923 28.913 4.691 60.49 4.091 88.855-3.702 11.397-3.131 21.372-9.1 25.787-20.57 4.744-12.32 3.326-26.927 1.947-39.754-3.472-32.302-14.665-63.352-32.487-90.488-2.324-3.54-8.043-.232-5.7 3.336 13.97 21.273 23.842 44.907 28.895 69.875 2.561 12.662 4.039 25.736 3.784 38.672-.27 13.758-4.641 25.48-18.237 30.719-12.19 4.695-26.199 6.218-39.106 7.28-13.27 1.093-26.633 1.014-39.89-.244-11.619-1.102-23.959-2.719-34.403-8.323-12.056-6.47-16.12-17.082-15.936-30.392.435-31.533 4.855-63.337 10.895-94.237.813-4.155-5.55-5.934-6.366-1.757M364.363 203.037c5.485 11.388 15.78 18.343 25.909 25.147 13.184 8.86 24.275 18.822 28.94 34.713 2.165 7.374 3.585 16.704 1.022 24.167-2.6 7.575-12.225 10.631-18.7 5.923-6.396-4.653-7.696-16.722-9.77-23.95l-7.55-26.3c-1.172-4.087-7.498-2.348-6.32 1.762 3.205 11.157 6.407 22.316 9.61 33.473 2.224 7.744 4.095 17.076 11.64 21.394 13.435 7.693 27.102-2.556 28.578-16.672 1.852-17.72-5.699-36.356-18.483-48.42-12.672-11.961-31.262-18.065-39.217-34.58-1.846-3.835-7.499-.48-5.659 3.343M263.966 55.125c-2.39-4.767 3.791-7.284 7.373-5.729 4.393 1.908 5.838 6.897 6.015 11.351.173 4.326 6.815 4.348 6.643 0-.352-8.891-5.358-18.573-15.26-18.745-8.5-.147-14.414 8.729-10.507 16.527 1.939 3.87 7.671.46 5.736-3.404M172.516 113.298c-2.605 7.2-3.116 14.682-1.862 22.245.716 4.303 6.972 2.48 6.26-1.81-1.058-6.372-.319-12.602 1.86-18.628 1.484-4.096-4.788-5.867-6.258-1.807M377.429 117.815c3.321 5.918 4.69 12.48 3.724 19.169-.581 4.024 5.832 5.764 6.418 1.699 1.224-8.482-.15-16.532-4.396-24.096-2.032-3.623-7.78-.398-5.746 3.228M96.13 205.072c7.533 27.33 18.548 53.546 32.53 78.353 1.82 3.228 7.355 1.048 6.177-2.53l-1.11-3.372c-1.319-4.009-7.847-2.295-6.516 1.747l1.108 3.371 6.178-2.53c-13.714-24.33-24.462-49.983-31.85-76.785-1.124-4.078-7.645-2.347-6.516 1.746M94.25 166.673c-9.617-1.153-10.218-20.204-10.896-27.073-1.044-10.572-1.044-21.26-.023-31.833.603-6.213 1.584-12.387 2.923-18.48.955-4.35 1.505-10.42 3.79-14.2.33-3.351 2.554-4.425 6.671-3.22 1.01.993 2.006 2.002 2.984 3.027 1.474 1.544 2.91 3.122 4.302 4.74 3.297 3.837 6.335 7.885 9.05 12.164 10.12 15.941 15.397 35.094 10.545 53.811-2.264 8.726-6.566 16.875-13.062 23.113-2.653 2.548-6.164 6.443-10.434 3.142-1.627-1.259-2.934-3.991-4.024-5.678-3.176-4.913-5.9-9.932-6.353-15.92-.322-4.245-6.892-4.28-6.568 0 .714 9.416 5.764 19.555 12.302 26.306 6.813 7.037 14.672 1.963 20.404-3.799 13.57-13.641 18.325-34.398 15.232-53.145-1.777-10.77-6.098-21.07-11.8-30.29-5.22-8.445-12.135-18.352-20.241-24.166-18.425-13.214-22.04 37.782-22.684 47.483-.913 13.732-.133 27.654 2.415 41.178 1.684 8.948 5.556 18.31 15.467 19.498 4.187.502 4.152-6.16 0-6.658" transform="translate(0 -147) translate(1251 433)"/>
                        <path fill="#FEFEFE" d="M74.274 47.94C57.52 70.388 48.965 98.407 50.1 126.354c1.063 26.21 10.963 56.957 31.374 74.703 9.475 8.237 21.653 11.75 33.5 6.38 12.294-5.574 19.286-17.54 23.338-29.853 8.446-25.67 10.444-55.132 3.422-81.337C134.801 70.37 113.969 37.51 82.79 42.51c-4.226.676-2.433 7.076 1.773 6.403 25.947-4.16 43.592 25.206 49.882 46.1 6.845 22.744 5.8 47.391.339 70.305-2.884 12.096-6.981 25.407-17.5 33.127-11.681 8.571-24.644 4.794-34.11-4.953-17.089-17.596-25.674-44.122-26.439-68.187-.843-26.565 7.387-52.694 23.297-74.012 2.562-3.432-3.224-6.747-5.758-3.351" transform="translate(0 -147) translate(1251 433)"/>
                        <path fill="#FEFEFE" d="M89.7 110.263c-.126 12.187.71 24.253 2.409 36.29l5.848-1.796c-1.774-11.38-2.62-22.823-2.635-34.37-.004-4.377-5.846-4.319-6.063 0-.59 11.697-.165 23.318 1.22 34.93.506 4.25 6.575 4.305 6.063 0-1.384-11.612-1.81-23.233-1.22-34.93H89.26c.016 12.155.983 24.191 2.85 36.166.67 4.3 6.447 2.445 5.848-1.796-1.613-11.433-2.312-22.924-2.194-34.494.043-4.349-6.02-4.353-6.064 0M401.316 251.125c4.136 9.225 7.359 18.737 9.808 28.489 1.05 4.18 7.816 2.41 6.766-1.776-2.599-10.341-6.136-20.31-10.517-30.084-1.765-3.943-7.811-.543-6.057 3.37M116.33 205.062l31.434 68.215c1.79 3.882 7.684.52 5.906-3.338l-31.436-68.217c-1.787-3.88-7.682-.52-5.904 3.34M101.869 95.014l4.137-4.144c1.277-1.279 1.372-3.621 0-4.884-1.376-1.265-3.512-1.364-4.875 0l-4.137 4.144c-1.277 1.279-1.372 3.621 0 4.884 1.376 1.265 3.512 1.364 4.875 0" transform="translate(0 -147) translate(1251 433)"/>
                        <path fill="#FEFEFE" d="M207.404 202.077c-18.407 20.835-40.603 37.666-65.698 49.83-3.864 1.872-.48 7.59 3.373 5.723 25.554-12.387 48.306-29.65 67.05-50.866 2.825-3.196-1.883-7.903-4.725-4.687M114.523 268.495c-7.025 6.737-15.171 18.113-7.295 27.483 7.667 9.127 26.321 5.744 36.36 3.562 29.837-6.483 53.323-27.229 75.354-46.986 3.18-2.851-1.525-7.509-4.692-4.67-16.394 14.701-33.13 29.749-53.421 38.944-10.675 4.837-22.369 8.003-34.15 8.064-6.02.03-15.514.359-15.907-7.748-.282-5.774 4.629-10.322 8.444-13.98 3.08-2.955-1.617-7.62-4.693-4.67" transform="translate(0 -147) translate(1251 433)"/>
                        <path fill="#FEFEFE" d="M159.29 267.955c-7.426 7.21-16.81 10.716-27.084 10.302-4.279-.172-4.27 6.535 0 6.707 11.963.483 23.171-3.904 31.785-12.266 3.089-3-1.616-7.737-4.7-4.743" transform="translate(0 -147) translate(1251 433)"/>
                        <g transform="translate(0 -147) translate(1251 433) translate(0 66)">
                            <mask id="alzejintxl" fill="#fff">
                                <use xlink:href="#e11cgw24qk"/>
                            </mask>
                            <path fill="#FEFEFE" d="M52.458.143c-17.32.61-34.182 4.224-50.24 10.916-3.924 1.635-2.208 8.244 1.771 6.587C19.51 11.18 35.706 7.563 52.46 6.973c4.277-.15 4.298-6.982 0-6.83" mask="url(#alzejintxl)"/>
                        </g>
                        <path fill="#FEFEFE" d="M76.29 211.609c-18.956 13.717-37.913 27.432-56.871 41.147-3.368 2.438-.118 8.1 3.29 5.636l56.872-41.149c3.369-2.437.118-8.1-3.29-5.634M48.015 199.45l-21.374 12.12c-3.748 2.126-.408 8.106 3.344 5.98l21.373-12.12c3.75-2.125.409-8.107-3.343-5.98M217.102 328.919c8.136 34.488 44.62 49.008 77.004 48.035 16.873-.506 37.036-2.596 50.629-13.541 13.04-10.502 24.547-28.226 25.261-45.207.182-4.279-6.484-4.27-6.664 0-.65 15.438-12.586 33.54-25.376 41.99-12.869 8.502-31.23 9.994-46.247 10.156-28.78.313-60.95-12.555-68.181-43.201-.983-4.165-7.41-2.402-6.426 1.768M260.642 25.888l-5.693-12.17c-1.82-3.89-7.406-.486-5.591 3.395l5.694 12.169c1.82 3.89 7.405.485 5.59-3.394M281.846 24.72c2.856-7.153 6.758-13.765 11.473-19.854 2.684-3.47-3.25-6.868-5.902-3.442-5.101 6.59-9.074 13.755-12.16 21.483-1.63 4.078 4.977 5.848 6.589 1.814" transform="translate(0 -147) translate(1251 433)"/>
                    </g>
                </g>
            </g>
        </g>
    </g>
</svg>
