<?xml version="1.0" encoding="UTF-8"?>
<!-- Generator: Adobe Illustrator 17.0.0, SVG Export Plug-In . SVG Version: 6.00 Build 0)  -->
<!DOCTYPE svg PUBLIC "-//W3C//DTD SVG 1.1//EN" "http://www.w3.org/Graphics/SVG/1.1/DTD/svg11.dtd">
<svg version="1.1" id="Ebene_1" xmlns="http://www.w3.org/2000/svg" xmlns:xlink="http://www.w3.org/1999/xlink" x="0px" y="0px" width="200px" height="200px" viewBox="0 0 200 200" enable-background="new 0 0 200 200" xml:space="preserve">
<g id="Ebene_1_1_">
	<g>
		<path fill="#307C9D" d="M157.359,50.334v-8.439l-9.072,0.025v-8.252l9.01-0.025v-8.319h-9.033v-8.311h-9.071v8.319h9.108v8.302    h-9.01v8.319h-8.994v-8.319h-9.033h-0.039h-0.021v-8.28h-9.071l0.06,10.051v6.549h9.033h0.004v8.261h-9.071v-8.261h-8.176v-8.319    h-9.071v3.159c0.508,19.153-8.452,32.628-20.423,32.713c-10.449,0.074-14.046-6.642-14.261-11.416    c-0.239-5.322,3.497-9.358,7.429-9.22c3.339,0.117,5.567,2.505,5.289,4.732c-0.278,2.227-1.883,3.332-2.506,2.923    c-1.218-0.801,0.035-1.583,0.139-2.66c0.178-1.853-1.272-2.016-2.115-2.068c-1.554-0.094-4.051,1.152-4.051,3.929    c0,5.001,4.023,6.424,7.021,6.424c5.604,0,10.278-4.14,10.338-10.607c0.049-5.231-2.371-17.597-18.073-17.597    c-13.075,0-27.944,9.915-28.268,28.061c-0.492,27.628,19.29,47.124,47.053,47.085c29.503-0.041,53.475-12.341,65.763-34.654V67.07    h9.095V58.75h-9.095v-0.149h0.052v-8.258h9.061v8.417h9.071v-8.427L157.359,50.334L157.359,50.334z M112.45,75.545h-9.071v-8.319    h9.071V75.545z M139.225,58.601h-8.969v8.24h-9.071v-8.319h9.008v-8.24h9.033V58.601z"/>
		<rect x="157.144" y="8.898" fill="#307C9D" width="9.071" height="8.319"/>
		<rect x="94.593" y="16.606" fill="#307C9D" width="9.071" height="8.319"/>
		<rect x="121.338" y="8.664" fill="#307C9D" width="9.071" height="8.319"/>
	</g>
	<g>
		<path fill="#307C9D" d="M11.428,133.332h4.644l-0.155,17.853h-4.644L11.428,133.332z"/>
		<path fill="#307C9D" d="M20.408,133.332h4.644l-0.155,17.853h-4.644L20.408,133.332z"/>
		<path fill="#307C9D" d="M29.49,133.332h6.862c5.985,0,6.992,3.431,6.992,5.444c0,3.792-2.631,5.599-6.217,5.599h-2.992    l-0.103,6.811h-4.695L29.49,133.332z M33.954,140.969h2.089c1.109,0,2.657-0.31,2.657-2.116c0-1.471-0.903-2.115-2.761-2.115    h-1.883L33.954,140.969z"/>
		<path fill="#307C9D" d="M46.261,142.879h7.43v3.56h-7.43V142.879z"/>
		<path fill="#307C9D" d="M58.028,133.332H70.36v3.715h-7.662l-0.052,3.431h7.637v3.561h-7.662l-0.052,3.431h7.637v3.716H57.874    L58.028,133.332z"/>
		<path fill="#307C9D" d="M85.506,150.309c-1.238,0.774-3.277,1.341-4.773,1.341c-4.128,0-7.094-2.373-7.094-6.656    c0-4.386,2.941-7.275,7.378-7.275c1.548,0,3.406,0.49,4.412,1.135l-1.444,2.941c-0.671-0.284-1.393-0.516-2.116-0.516    c-2.244,0-3.741,1.342-3.741,3.483c0,1.858,1.444,3.328,3.355,3.328c0.851,0,1.702-0.387,2.425-0.748L85.506,150.309z"/>
		<path fill="#307C9D" d="M105.298,147.833c0.928,0.361,2.554,0.722,3.663,0.722c0.645,0,1.496-0.386,1.496-1.032    c0-0.567-0.232-0.774-2.503-1.418c-2.193-0.62-3.535-1.652-3.535-4.077c0-3.121,2.941-4.308,5.676-4.308    c2.219,0,4.102,0.515,4.618,0.851l-0.826,2.786c-0.877-0.232-1.909-0.542-3.173-0.542c-0.697,0-1.652,0.283-1.652,1.032    c0,0.542,0.232,0.877,1.652,1.161c2.528,0.516,4.386,1.342,4.386,4.231c0,3.354-2.915,4.411-6.063,4.411    c-1.934,0-4.128-0.542-4.747-0.851L105.298,147.833z"/>
		<path fill="#307C9D" d="M117.993,138.183h4.257v0.928c0.928-0.748,2.193-1.316,3.637-1.393c3.948,0,5.935,3.405,5.935,6.578    c0,4.051-2.425,7.353-6.604,7.353c-1.057,0-2.089-0.258-2.941-0.696l-0.051,6.733h-4.334L117.993,138.183z M122.224,147.677    c0.464,0.516,1.419,0.722,2.089,0.722c2.089,0,3.019-1.677,3.019-3.663c0-1.755-0.67-3.302-2.684-3.302    c-0.851,0-1.677,0.361-2.322,0.902L122.224,147.677z"/>
		<path fill="#307C9D" d="M135.178,131.836h4.488l-0.025,7.766c1.032-1.007,2.605-1.883,4.206-1.883    c2.761,0,4.257,1.522,4.257,5.083c0,2.657-0.025,5.52-0.051,8.385h-4.489c0.025-2.503,0.052-5.031,0.052-7.714    c0-1.057-0.284-1.883-1.625-1.883c-0.722,0-1.754,0.62-2.348,1.187l-0.103,8.411h-4.488L135.178,131.836z"/>
		<path fill="#307C9D" d="M163.791,149.715c-1.522,1.29-3.844,1.934-5.908,1.934c-4.721,0-6.862-3.354-6.862-6.682    c0-3.922,2.941-7.249,6.992-7.249c4.953,0,6.502,3.509,6.502,7.972h-9.004c0,1.006,0.646,2.709,3.122,2.709    c1.574,0,2.45-0.465,3.663-1.291L163.791,149.715z M160.489,143.059c0-1.342-0.646-2.554-2.141-2.554    c-1.419,0-2.503,1.264-2.786,2.554H160.489z"/>
		<path fill="#307C9D" d="M167.534,138.183h4.488v1.832h0.052c0.67-1.109,1.548-2.194,3.302-2.194c0.49,0,1.006,0.052,1.471,0.155    l-0.593,4.438c-0.439-0.129-0.928-0.258-1.599-0.258c-1.497,0-2.657,1.264-2.657,1.522l-0.077,7.508h-4.488L167.534,138.183z"/>
		<path fill="#307C9D" d="M190.419,149.715c-1.522,1.29-3.843,1.934-5.907,1.934c-4.722,0-6.863-3.354-6.863-6.682    c0-3.922,2.941-7.249,6.992-7.249c4.953,0,6.502,3.509,6.502,7.972h-9.004c0,1.006,0.645,2.709,3.121,2.709    c1.574,0,2.451-0.465,3.663-1.291L190.419,149.715z M187.117,143.059c0-1.342-0.645-2.554-2.141-2.554    c-1.418,0-2.503,1.264-2.786,2.554H187.117z"/>
	</g>
	<g>
		<path fill="#808080" d="M29.659,166.002l1.482-0.448l4.023,6.601h0.025l-0.1-6.427h1.595l-0.075,8.345l-1.607,0.448l-3.923-6.564    l-0.025,0.025l0.125,6.364h-1.595L29.659,166.002z"/>
		<path fill="#808080" d="M39.886,171.396c0.013,0.86,0.399,1.906,1.444,1.906c0.598,0,1.071-0.399,1.458-0.81l0.872,0.797    c-0.66,0.735-1.533,1.233-2.554,1.233c-1.595,0-2.74-1.321-2.74-3.288c0-1.669,1.034-3.338,2.865-3.338    c1.769,0,2.591,1.308,2.591,3.499L39.886,171.396L39.886,171.396z M42.377,170.325c-0.037-0.673-0.349-1.358-1.146-1.358    c-0.684,0-1.207,0.735-1.27,1.358H42.377z"/>
		<path fill="#808080" d="M46.664,171.209l-1.93-2.627l1.333-0.835l1.506,2.391l1.557-2.391l1.258,0.835l-1.943,2.627l1.993,2.615    l-1.357,0.785l-1.507-2.367l-1.681,2.367l-1.283-0.785L46.664,171.209z"/>
		<path fill="#808080" d="M55.147,173.999l-0.511,0.274c-0.399,0.224-0.759,0.249-0.947,0.249c-1.046,0-1.706-0.548-1.706-1.881    c0-0.287,0-0.958,0.012-1.506l0.038-1.918h-0.847v-1.146l0.847,0.025l0.05-2.242h1.52l-0.05,2.242l1.395-0.025v1.146h-1.395    l-0.038,1.843c-0.012,0.622-0.012,1.196-0.012,1.656c0,0.41,0.137,0.66,0.51,0.66c0.262,0,0.486-0.149,0.697-0.299L55.147,173.999    z"/>
		<path fill="#808080" d="M60.181,165.729h1.595l-0.075,7.249h3.375v1.37h-4.969L60.181,165.729z"/>
		<path fill="#808080" d="M67.556,171.396c0.013,0.86,0.399,1.906,1.444,1.906c0.598,0,1.071-0.399,1.458-0.81l0.872,0.797    c-0.66,0.735-1.533,1.233-2.554,1.233c-1.595,0-2.74-1.321-2.74-3.288c0-1.669,1.034-3.338,2.865-3.338    c1.769,0,2.591,1.308,2.591,3.499L67.556,171.396L67.556,171.396z M70.047,170.325c-0.037-0.673-0.349-1.358-1.146-1.358    c-0.684,0-1.207,0.735-1.27,1.358H70.047z"/>
		<path fill="#808080" d="M72.203,168.332l1.52-0.437l1.358,4.559h0.025l1.631-4.559l1.444,0.437l-2.416,6.015H74.32L72.203,168.332    z"/>
		<path fill="#808080" d="M80.562,171.396c0.013,0.86,0.399,1.906,1.444,1.906c0.598,0,1.071-0.399,1.458-0.81l0.872,0.797    c-0.66,0.735-1.533,1.233-2.554,1.233c-1.595,0-2.74-1.321-2.74-3.288c0-1.669,1.034-3.338,2.865-3.338    c1.769,0,2.591,1.308,2.591,3.499L80.562,171.396L80.562,171.396z M83.053,170.325c-0.037-0.673-0.349-1.358-1.146-1.358    c-0.684,0-1.207,0.735-1.27,1.358H83.053z"/>
		<path fill="#808080" d="M86.094,165.007h1.52l-0.075,9.341h-1.52L86.094,165.007z"/>
		<path fill="#808080" d="M93.594,165.729h4.608v1.37h-3.014l-0.025,2.217h2.989v1.295h-3.001l-0.013,2.366h3.064v1.37h-4.695    L93.594,165.729z"/>
		<path fill="#808080" d="M104.593,173.326c-0.61,0.747-1.345,1.196-2.342,1.196c-1.793,0-2.727-1.694-2.727-3.213    c0-1.731,1.083-3.413,2.952-3.413c0.922,0,1.632,0.437,2.192,1.058l-0.859,0.835c-0.386-0.311-0.735-0.598-1.27-0.598    c-0.947,0-1.419,1.021-1.419,1.981c0,1.32,0.585,2.055,1.345,2.055c0.56,0,0.934-0.337,1.283-0.697L104.593,173.326z"/>
		<path fill="#808080" d="M108.331,167.896c1.993,0,3.002,1.457,3.002,3.313c0,1.78-1.109,3.313-3.002,3.313    c-2.043,0-3.001-1.533-3.001-3.313C105.329,169.552,106.487,167.896,108.331,167.896z M108.331,173.302    c1.096,0,1.482-1.171,1.482-2.043c0-1.308-0.461-2.142-1.482-2.142c-1.133,0-1.482,1.27-1.482,2.142    C106.849,172.019,107.198,173.302,108.331,173.302z"/>
		<path fill="#808080" d="M113.128,172.853c0.486,0.287,0.996,0.523,1.569,0.523c0.461,0,0.872-0.224,0.872-0.735    c0-1.258-2.927-0.287-2.927-2.802c0-1.295,1.096-1.943,2.317-1.943c0.722,0,1.569,0.211,2.13,0.685l-0.648,0.958    c-0.361-0.274-0.922-0.499-1.382-0.499c-0.437,0-0.971,0.237-0.971,0.747c0,1.196,3.001,0.448,3.001,2.728    c0,1.345-1.146,2.005-2.366,2.005c-0.759,0-1.506-0.211-2.154-0.598L113.128,172.853z"/>
		<path fill="#808080" d="M118.597,168.07h1.457v0.66h0.025c0.312-0.474,0.922-0.835,1.582-0.835c1.569,0,2.665,1.333,2.665,3.226    c0,1.694-0.971,3.375-2.765,3.375c-0.511,0-1.071-0.149-1.419-0.598h-0.025l-0.038,3.463h-1.52L118.597,168.07z M120.141,172.629    c0.211,0.261,0.535,0.573,1.083,0.573c0.772,0,1.582-0.747,1.582-2.006c0-1.183-0.636-2.005-1.544-2.005    c-0.636,0-1.034,0.448-1.121,0.984V172.629z"/>
		<path fill="#808080" d="M125.947,165.007h1.52l-0.025,3.824h0.025c0.485-0.548,1.196-0.934,2.03-0.934    c1.321,0,1.669,0.922,1.669,1.893c0,0.622-0.012,1.009-0.012,1.407l-0.038,3.151h-1.52l0.013-1.569    c0.012-0.971,0.025-2.167,0.025-2.665c0-0.485-0.187-0.847-0.822-0.847c-0.473,0-0.996,0.448-1.383,0.822l-0.025,4.26h-1.52    L125.947,165.007z"/>
		<path fill="#808080" d="M134.244,171.396c0.013,0.86,0.399,1.906,1.444,1.906c0.598,0,1.071-0.399,1.458-0.81l0.872,0.797    c-0.66,0.735-1.533,1.233-2.554,1.233c-1.595,0-2.74-1.321-2.74-3.288c0-1.669,1.034-3.338,2.865-3.338    c1.769,0,2.591,1.308,2.591,3.499L134.244,171.396L134.244,171.396z M136.735,170.325c-0.037-0.673-0.349-1.358-1.146-1.358    c-0.684,0-1.208,0.735-1.27,1.358H136.735z"/>
		<path fill="#808080" d="M139.652,168.07h1.52v1.146l0.012,0.025c0.299-0.722,0.685-1.321,1.458-1.345    c0.149,0,0.299,0.025,0.448,0.062l-0.249,1.458c-0.125-0.025-0.249-0.05-0.362-0.05c-0.585,0-1.009,0.436-1.321,1.096    l-0.037,3.886h-1.533L139.652,168.07z"/>
		<path fill="#808080" d="M145.17,171.396c0.012,0.86,0.399,1.906,1.444,1.906c0.598,0,1.071-0.399,1.457-0.81l0.872,0.797    c-0.66,0.735-1.532,1.233-2.553,1.233c-1.595,0-2.74-1.321-2.74-3.288c0-1.669,1.033-3.338,2.865-3.338    c1.769,0,2.591,1.308,2.591,3.499L145.17,171.396L145.17,171.396z M147.661,170.325c-0.038-0.673-0.349-1.358-1.146-1.358    c-0.685,0-1.208,0.735-1.27,1.358H147.661z"/>
		<path fill="#808080" d="M154.701,169.216h-0.996v-1.146h0.996v-0.81c0-1.357,0.822-2.353,2.366-2.353h0.486v1.221h-0.349    c-0.561,0-0.959,0.299-0.959,1.083v0.86h1.295v1.146h-1.332v5.131h-1.533L154.701,169.216z"/>
		<path fill="#808080" d="M161.315,167.896c1.993,0,3.002,1.457,3.002,3.313c0,1.78-1.109,3.313-3.002,3.313    c-2.043,0-3.001-1.533-3.001-3.313C158.314,169.552,159.472,167.896,161.315,167.896z M161.315,173.302    c1.096,0,1.482-1.171,1.482-2.043c0-1.308-0.461-2.142-1.482-2.142c-1.133,0-1.482,1.27-1.482,2.142    C159.833,172.019,160.182,173.302,161.315,173.302z"/>
		<path fill="#808080" d="M165.937,168.07h1.52v1.146l0.013,0.025c0.299-0.722,0.684-1.321,1.457-1.345    c0.149,0,0.299,0.025,0.448,0.062l-0.249,1.458c-0.125-0.025-0.249-0.05-0.361-0.05c-0.586,0-1.009,0.436-1.321,1.096    l-0.038,3.886h-1.532L165.937,168.07z"/>
		<path fill="#808080" d="M11.183,182.151h1.595l-0.075,8.618h-1.595L11.183,182.151z"/>
		<path fill="#808080" d="M14.833,184.492h1.495v0.76h0.025c0.486-0.548,1.196-0.934,2.03-0.934c1.321,0,1.669,0.922,1.669,1.893    c0,0.622-0.013,1.009-0.013,1.407l-0.037,3.151h-1.52l0.012-1.569c0.013-0.971,0.025-1.718,0.025-2.466    c0-0.772-0.187-1.046-0.822-1.046c-0.473,0-0.996,0.448-1.382,0.822l-0.025,4.26h-1.52L14.833,184.492z"/>
		<path fill="#808080" d="M25.384,190.421l-0.51,0.274c-0.399,0.224-0.76,0.249-0.947,0.249c-1.046,0-1.707-0.548-1.707-1.881    c0-0.287,0-0.958,0.013-1.506l0.037-1.918h-0.847v-1.146l0.847,0.025l0.05-2.242h1.52l-0.05,2.242l1.395-0.025v1.146H23.79    l-0.037,1.843c-0.013,0.622-0.013,1.196-0.013,1.656c0,0.41,0.137,0.66,0.511,0.66c0.261,0,0.485-0.149,0.697-0.299    L25.384,190.421z"/>
		<path fill="#808080" d="M27.552,187.817c0.012,0.86,0.399,1.906,1.444,1.906c0.598,0,1.071-0.399,1.457-0.81l0.872,0.797    c-0.66,0.735-1.532,1.233-2.553,1.233c-1.595,0-2.74-1.321-2.74-3.288c0-1.669,1.033-3.338,2.865-3.338    c1.769,0,2.591,1.308,2.591,3.499L27.552,187.817L27.552,187.817z M30.044,186.747c-0.038-0.673-0.349-1.358-1.146-1.358    c-0.685,0-1.208,0.735-1.27,1.358H30.044z"/>
		<path fill="#808080" d="M33.084,181.428h1.52l-0.075,9.341h-1.52L33.084,181.428z"/>
		<path fill="#808080" d="M36.822,181.428h1.52l-0.075,9.341h-1.52L36.822,181.428z"/>
		<path fill="#808080" d="M40.547,184.492h1.52l-0.063,6.277h-1.52L40.547,184.492z M40.559,182.151h1.52l-0.012,1.47h-1.52    L40.559,182.151z"/>
		<path fill="#808080" d="M48.893,185.488c0.237,0.262,0.362,0.598,0.362,0.959c0,1.295-1.121,2.03-2.317,2.03    c-0.511,0-0.909-0.087-1.146-0.162c-0.237,0.175-0.548,0.349-0.548,0.574c0,0.273,0.385,0.323,1.793,0.448    c1.407,0.124,2.89,0.311,2.89,1.867c0,1.719-1.843,2.579-3.425,2.579c-2.005,0-2.839-0.934-2.839-1.843    c0-0.909,0.685-1.308,1.345-1.644v-0.025c-0.573-0.125-1.345-0.262-1.345-0.872c0-0.548,0.424-0.822,1.47-1.482    c-0.598-0.323-0.859-0.859-0.859-1.469c0-1.345,1.133-2.13,2.429-2.13c0.711,0,1.021,0.125,1.395,0.274l2.03-0.037v0.971    L48.893,185.488z M46.626,192.812c1.084,0,1.856-0.673,1.856-1.321c0-0.66-0.249-0.735-2.429-0.996    c-0.485,0.299-1.096,0.636-1.096,1.233C44.957,192.538,45.966,192.812,46.626,192.812z M45.717,186.448    c0,0.548,0.349,1.058,1.071,1.058c0.684,0,1.021-0.46,1.021-1.121c0-0.598-0.374-1.096-0.984-1.096    C46.128,185.289,45.717,185.762,45.717,186.448z"/>
		<path fill="#808080" d="M52.469,187.817c0.013,0.86,0.399,1.906,1.444,1.906c0.598,0,1.071-0.399,1.458-0.81l0.872,0.797    c-0.66,0.735-1.533,1.233-2.554,1.233c-1.595,0-2.74-1.321-2.74-3.288c0-1.669,1.034-3.338,2.865-3.338    c1.769,0,2.591,1.308,2.591,3.499L52.469,187.817L52.469,187.817z M54.96,186.747c-0.037-0.673-0.349-1.358-1.146-1.358    c-0.684,0-1.207,0.735-1.27,1.358H54.96z"/>
		<path fill="#808080" d="M57.877,184.492h1.495v0.76h0.025c0.485-0.548,1.196-0.934,2.03-0.934c1.321,0,1.669,0.922,1.669,1.893    c0,0.622-0.012,1.009-0.012,1.407l-0.038,3.151h-1.52l0.013-1.569c0.012-0.971,0.025-1.718,0.025-2.466    c0-0.772-0.187-1.046-0.822-1.046c-0.473,0-0.996,0.448-1.383,0.822l-0.025,4.26h-1.52L57.877,184.492z"/>
		<path fill="#808080" d="M68.427,190.421l-0.511,0.274c-0.399,0.224-0.759,0.249-0.947,0.249c-1.046,0-1.706-0.548-1.706-1.881    c0-0.287,0-0.958,0.012-1.506l0.038-1.918h-0.847v-1.146l0.847,0.025l0.05-2.242h1.52l-0.05,2.242l1.395-0.025v1.146h-1.395    l-0.038,1.843c-0.012,0.622-0.012,1.196-0.012,1.656c0,0.41,0.137,0.66,0.51,0.66c0.262,0,0.486-0.149,0.697-0.299L68.427,190.421    z"/>
		<path fill="#808080" d="M73.324,182.151h1.595l-0.075,8.618h-1.595L73.324,182.151z"/>
		<path fill="#808080" d="M76.974,184.492h1.495v0.76h0.025c0.486-0.548,1.196-0.934,2.03-0.934c1.321,0,1.669,0.922,1.669,1.893    c0,0.622-0.013,1.009-0.013,1.407l-0.037,3.151h-1.52l0.012-1.569c0.013-0.971,0.025-1.718,0.025-2.466    c0-0.772-0.187-1.046-0.822-1.046c-0.473,0-0.996,0.448-1.382,0.822l-0.025,4.26h-1.52L76.974,184.492z"/>
		<path fill="#808080" d="M87.962,190.085h-0.025c-0.312,0.472-0.922,0.834-1.557,0.834c-1.532,0-2.627-1.332-2.627-3.201    c0-1.694,0.971-3.375,2.727-3.375c0.486,0,1.046,0.149,1.395,0.598h0.025l0.038-3.512h1.52l-0.038,9.341h-1.457L87.962,190.085    L87.962,190.085z M87.874,186.211c-0.187-0.261-0.535-0.573-1.058-0.573c-0.822,0-1.544,0.784-1.544,2.006    c0,1.158,0.635,1.98,1.506,1.98c0.473,0,1.009-0.448,1.096-0.984V186.211z"/>
		<path fill="#808080" d="M96.558,190.77h-1.52v-0.76h-0.025c-0.473,0.548-1.184,0.934-1.943,0.934c-1.383,0-1.744-0.909-1.744-2.13    c0-0.385,0.012-0.772,0.012-1.17l0.038-3.151h1.52l-0.013,1.569c-0.012,0.909-0.025,1.793-0.025,2.479    c0,0.735,0.187,1.033,0.822,1.033c0.473,0,0.996-0.448,1.383-0.822l0.025-4.26h1.52L96.558,190.77z"/>
		<path fill="#808080" d="M98.752,189.275c0.486,0.287,0.996,0.523,1.569,0.523c0.461,0,0.872-0.224,0.872-0.735    c0-1.258-2.927-0.287-2.927-2.802c0-1.295,1.096-1.943,2.317-1.943c0.722,0,1.569,0.211,2.13,0.685l-0.648,0.958    c-0.361-0.274-0.922-0.499-1.382-0.499c-0.437,0-0.971,0.237-0.971,0.747c0,1.196,3.001,0.448,3.001,2.728    c0,1.345-1.146,2.005-2.366,2.005c-0.759,0-1.506-0.211-2.154-0.598L98.752,189.275z"/>
		<path fill="#808080" d="M107.72,190.421l-0.51,0.274c-0.399,0.224-0.76,0.249-0.947,0.249c-1.046,0-1.707-0.548-1.707-1.881    c0-0.287,0-0.958,0.013-1.506l0.037-1.918h-0.847v-1.146l0.847,0.025l0.05-2.242h1.52l-0.05,2.242l1.395-0.025v1.146h-1.395    l-0.037,1.843c-0.013,0.622-0.013,1.196-0.013,1.656c0,0.41,0.137,0.66,0.511,0.66c0.261,0,0.485-0.149,0.697-0.299    L107.72,190.421z"/>
		<path fill="#808080" d="M108.793,184.492h1.52v1.146l0.012,0.025c0.299-0.722,0.685-1.321,1.458-1.345    c0.149,0,0.299,0.025,0.448,0.062l-0.249,1.458c-0.125-0.025-0.249-0.05-0.362-0.05c-0.585,0-1.009,0.436-1.321,1.096    l-0.037,3.886h-1.533L108.793,184.492z"/>
		<path fill="#808080" d="M113.327,184.492h1.52l-0.062,6.277h-1.52L113.327,184.492z M113.339,182.151h1.52l-0.013,1.47h-1.52    L113.339,182.151z"/>
		<path fill="#808080" d="M116.741,185.588c1.37-1.121,2.068-1.27,2.74-1.27c0.934,0,1.793,0.586,1.793,1.806    c0,0.225,0,0.362-0.013,0.524l-0.05,1.806c-0.012,0.287-0.025,0.523-0.025,0.785c0,0.349,0.174,0.598,0.337,0.598    c0.075,0,0.187-0.038,0.448-0.162l0.361,0.76c-0.66,0.436-1.021,0.51-1.308,0.51c-0.535,0-0.971-0.311-1.084-0.835    c-0.448,0.524-1.009,0.835-1.606,0.835c-1.121,0-1.881-0.71-1.881-1.832c0-1.009,0.648-1.88,3.363-2.328v-0.411    c0-0.697-0.299-0.834-0.722-0.834c-0.311,0-0.684,0.125-1.631,0.86L116.741,185.588z M119.805,187.755    c-1.444,0.324-1.906,0.673-1.906,1.308c0,0.461,0.324,0.735,0.797,0.735c0.312,0,0.722-0.199,1.084-0.586L119.805,187.755z"/>
		<path fill="#808080" d="M123.58,181.428h1.52l-0.075,9.341h-1.52L123.58,181.428z"/>
		<path fill="#808080" d="M131.08,182.151h2.429c2.254,0,3.151,1.021,3.151,2.627c0,1.77-1.47,2.616-3.139,2.616h-0.884    l-0.013,3.375h-1.631L131.08,182.151z M133.471,186.099c0.86,0,1.52-0.524,1.52-1.333c0-0.523-0.299-1.321-1.457-1.321h-0.847    l-0.025,2.654H133.471L133.471,186.099z"/>
		<path fill="#808080" d="M138.131,184.492h1.52v1.146l0.013,0.025c0.299-0.722,0.684-1.321,1.457-1.345    c0.149,0,0.299,0.025,0.448,0.062l-0.249,1.458c-0.125-0.025-0.249-0.05-0.361-0.05c-0.586,0-1.009,0.436-1.321,1.096    l-0.038,3.886h-1.532L138.131,184.492z"/>
		<path fill="#808080" d="M145.132,184.318c1.993,0,3.001,1.457,3.001,3.313c0,1.78-1.109,3.313-3.001,3.313    c-2.043,0-3.002-1.533-3.002-3.313C142.13,185.974,143.289,184.318,145.132,184.318z M145.132,189.723    c1.096,0,1.482-1.171,1.482-2.043c0-1.308-0.46-2.142-1.482-2.142c-1.134,0-1.482,1.27-1.482,2.142    C143.65,188.441,143.999,189.723,145.132,189.723z"/>
		<path fill="#808080" d="M153.541,190.085h-0.025c-0.312,0.472-0.922,0.834-1.557,0.834c-1.532,0-2.627-1.332-2.627-3.201    c0-1.694,0.971-3.375,2.727-3.375c0.486,0,1.046,0.149,1.395,0.598h0.025l0.038-3.512h1.52l-0.038,9.341h-1.457V190.085z     M153.453,186.211c-0.187-0.261-0.535-0.573-1.058-0.573c-0.822,0-1.544,0.784-1.544,2.006c0,1.158,0.635,1.98,1.506,1.98    c0.473,0,1.009-0.448,1.096-0.984L153.453,186.211L153.453,186.211z"/>
		<path fill="#808080" d="M162.137,190.77h-1.52v-0.76h-0.025c-0.473,0.548-1.184,0.934-1.943,0.934    c-1.383,0-1.744-0.909-1.744-2.13c0-0.385,0.012-0.772,0.012-1.17l0.038-3.151h1.52l-0.013,1.569    c-0.012,0.909-0.025,1.793-0.025,2.479c0,0.735,0.187,1.033,0.822,1.033c0.473,0,0.996-0.448,1.383-0.822l0.025-4.26h1.52    L162.137,190.77z"/>
		<path fill="#808080" d="M168.803,189.748c-0.611,0.747-1.345,1.196-2.342,1.196c-1.793,0-2.728-1.694-2.728-3.213    c0-1.731,1.084-3.413,2.953-3.413c0.922,0,1.631,0.437,2.192,1.058l-0.86,0.835c-0.385-0.311-0.735-0.598-1.27-0.598    c-0.947,0-1.419,1.021-1.419,1.981c0,1.32,0.586,2.055,1.345,2.055c0.561,0,0.934-0.337,1.283-0.697L168.803,189.748z"/>
		<path fill="#808080" d="M173.312,190.421l-0.511,0.274c-0.399,0.224-0.759,0.249-0.947,0.249c-1.046,0-1.706-0.548-1.706-1.881    c0-0.287,0-0.958,0.012-1.506l0.038-1.918h-0.847v-1.146l0.847,0.025l0.05-2.242h1.52l-0.05,2.242l1.395-0.025v1.146h-1.395    l-0.038,1.843c-0.012,0.622-0.012,1.196-0.012,1.656c0,0.41,0.137,0.66,0.51,0.66c0.262,0,0.486-0.149,0.697-0.299    L173.312,190.421z"/>
		<path fill="#808080" d="M174.497,184.492h1.52l-0.063,6.277h-1.52L174.497,184.492z M174.509,182.151h1.52l-0.012,1.47h-1.52    L174.509,182.151z"/>
		<path fill="#808080" d="M180.7,184.318c1.993,0,3.002,1.457,3.002,3.313c0,1.78-1.109,3.313-3.002,3.313    c-2.043,0-3.001-1.533-3.001-3.313C177.699,185.974,178.857,184.318,180.7,184.318z M180.7,189.723    c1.096,0,1.482-1.171,1.482-2.043c0-1.308-0.461-2.142-1.482-2.142c-1.133,0-1.482,1.27-1.482,2.142    C179.218,188.441,179.567,189.723,180.7,189.723z"/>
		<path fill="#808080" d="M185.323,184.492h1.495v0.76h0.025c0.486-0.548,1.196-0.934,2.03-0.934c1.321,0,1.669,0.922,1.669,1.893    c0,0.622-0.013,1.009-0.013,1.407l-0.037,3.151h-1.52l0.012-1.569c0.013-0.971,0.025-1.718,0.025-2.466    c0-0.772-0.187-1.046-0.822-1.046c-0.473,0-0.996,0.448-1.382,0.822l-0.025,4.26h-1.52L185.323,184.492z"/>
	</g>
	<path fill="#307C9D" d="M94.718,137.719c-4.798,0-7.275,3.044-7.275,6.966s2.476,6.966,7.275,6.966   c4.799,0,7.275-3.044,7.275-6.966C101.994,140.763,99.517,137.719,94.718,137.719z M98.034,147.978h-6.423v-6.423h6.423V147.978z"/>
</g>
</svg>