<?xml version="1.0" encoding="UTF-8" standalone="no"?>
<svg
   xmlns:dc="http://purl.org/dc/elements/1.1/"
   xmlns:cc="http://creativecommons.org/ns#"
   xmlns:rdf="http://www.w3.org/1999/02/22-rdf-syntax-ns#"
   xmlns:svg="http://www.w3.org/2000/svg"
   xmlns="http://www.w3.org/2000/svg"
   xmlns:sodipodi="http://sodipodi.sourceforge.net/DTD/sodipodi-0.dtd"
   xmlns:inkscape="http://www.inkscape.org/namespaces/inkscape"
   version="1.1"
   id="Ebene_1"
   x="0px"
   y="0px"
   width="131.00897"
   height="100.42906"
   viewBox="0 0 131.00897 100.42906"
   enable-background="new 0 0 200 200"
   xml:space="preserve"
   sodipodi:docname="iip_white.svg"
   inkscape:version="1.0.2 (e86c870879, 2021-01-15)"><metadata
   id="metadata152"><rdf:RDF><cc:Work
       rdf:about=""><dc:format>image/svg+xml</dc:format><dc:type
         rdf:resource="http://purl.org/dc/dcmitype/StillImage" /><dc:title></dc:title></cc:Work></rdf:RDF></metadata><defs
   id="defs150" /><sodipodi:namedview
   pagecolor="#ffffff"
   bordercolor="#666666"
   borderopacity="1"
   objecttolerance="10"
   gridtolerance="10"
   guidetolerance="10"
   inkscape:pageopacity="0"
   inkscape:pageshadow="2"
   inkscape:window-width="1920"
   inkscape:window-height="1131"
   id="namedview148"
   showgrid="false"
   inkscape:zoom="3.4330034"
   inkscape:cx="26.348507"
   inkscape:cy="96.071089"
   inkscape:window-x="0"
   inkscape:window-y="32"
   inkscape:window-maximized="1"
   inkscape:current-layer="g10"
   fit-margin-top="0"
   fit-margin-left="0"
   fit-margin-right="0"
   fit-margin-bottom="0"
   inkscape:document-rotation="0" />
<g
   id="Ebene_1_1_"
   transform="translate(-35.422023,-8.6639996)">
	<g
   id="g10">
		<path
   fill="#307c9d"
   d="m 157.359,50.334 v -8.439 l -9.072,0.025 v -8.252 l 9.01,-0.025 v -8.319 h -9.033 v -8.311 h -9.071 v 8.319 h 9.108 v 8.302 h -9.01 v 8.319 h -8.994 v -8.319 h -9.033 -0.039 -0.021 v -8.28 h -9.071 l 0.06,10.051 v 6.549 h 9.033 0.004 v 8.261 h -9.071 v -8.261 h -8.176 v -8.319 h -9.071 v 3.159 C 95.42,55.947 86.46,69.422 74.489,69.507 64.04,69.581 60.443,62.865 60.228,58.091 c -0.239,-5.322 3.497,-9.358 7.429,-9.22 3.339,0.117 5.567,2.505 5.289,4.732 -0.278,2.227 -1.883,3.332 -2.506,2.923 -1.218,-0.801 0.035,-1.583 0.139,-2.66 0.178,-1.853 -1.272,-2.016 -2.115,-2.068 -1.554,-0.094 -4.051,1.152 -4.051,3.929 0,5.001 4.023,6.424 7.021,6.424 5.604,0 10.278,-4.14 10.338,-10.607 0.049,-5.231 -2.371,-17.597 -18.073,-17.597 -13.075,0 -27.944,9.915 -28.268,28.061 -0.492,27.628 19.29,47.124 47.053,47.085 29.503,-0.041 53.475,-12.341 65.763,-34.654 V 67.07 h 9.095 v -8.32 h -9.095 v -0.149 h 0.052 v -8.258 h 9.061 v 8.417 h 9.071 V 50.333 Z M 112.45,75.545 h -9.071 v -8.319 h 9.071 z m 26.775,-16.944 h -8.969 v 8.24 h -9.071 v -8.319 h 9.008 v -8.24 h 9.033 v 8.319 z"
   id="path2"
   style="fill:#ffffff" />
		<rect
   x="157.144"
   y="8.8979998"
   fill="#307c9d"
   width="9.0710001"
   height="8.3190002"
   id="rect4"
   style="fill:#ffffff" />
		<rect
   x="94.593002"
   y="16.606001"
   fill="#307c9d"
   width="9.0710001"
   height="8.3190002"
   id="rect6"
   style="fill:#ffffff" />
		<rect
   x="121.338"
   y="8.6639996"
   fill="#307c9d"
   width="9.0710001"
   height="8.3190002"
   id="rect8"
   style="fill:#ffffff" />
	</g>
	
	
	
</g>
</svg>
